<?xml version="1.0" encoding="UTF-8"?>
<svg id="Layer_1" xmlns="http://www.w3.org/2000/svg" viewBox="0 0 130 60">
  <defs>
    <style>
      .cls-1 {
        fill: #2e96f8;
      }

      .cls-2 {
        fill: #fff;
      }
    </style>
  </defs>
  <path class="cls-2" d="M2.14,26.26c-.43-.31-.49-.71-.26-1.23l1.12-2.42c.26-.58.66-.64,1.17-.25,1.29.98,3.38,1.81,5.49,1.81,1.8,0,3.83-.43,3.83-2.18,0-1.41-1.8-1.84-4.86-2.7-5.06-1.41-6.35-4.02-6.35-7.05,0-4.48,3.72-6.29,7.52-6.29,3.4,0,6.12,1.07,7.67,2.24.43.34.46.77.2,1.26l-1.17,2.24c-.29.58-.69.61-1.17.21-1.17-.95-3-1.72-5.12-1.72s-3.32.77-3.32,1.93c0,1.26.94,2.02,4.38,2.97,4.66,1.26,6.84,2.85,6.84,6.75,0,4.69-3.89,6.62-8.32,6.62-3.35,0-6.12-1.07-7.64-2.21Z"/>
  <path class="cls-2" d="M34.78,27.21l-1.26-3.62h-7.92l-1.23,3.62c-.17.52-.51.74-1,.74h-2.89c-.63,0-.92-.43-.69-1.07l7.07-19.65c.17-.52.49-.74.97-.74h3.52c.49,0,.8.21.97.74l7.09,19.65c.23.64-.06,1.07-.69,1.07h-2.97c-.49,0-.8-.21-.97-.74ZM32.17,19.7l-2.63-7.63-2.6,7.63h5.23Z"/>
  <path class="cls-2" d="M55.29,6.49h3.03c.63,0,.92.43.69,1.07l-7.09,19.65c-.17.52-.49.74-.97.74h-3.55c-.49,0-.8-.21-.97-.74l-7.09-19.65c-.23-.64.06-1.07.69-1.07h3.06c.49,0,.83.21,1,.74l5.12,15.12,5.09-15.12c.17-.52.51-.74,1-.74Z"/>
  <path class="cls-2" d="M62.81,27.03V7.41c0-.58.31-.92.86-.92h2.8c.54,0,.86.34.86.92v19.62c0,.58-.31.92-.86.92h-2.8c-.54,0-.86-.34-.86-.92Z"/>
  <path class="cls-2" d="M87.49,7.41v2.58c0,.58-.31.92-.86.92h-5.12v16.13c0,.58-.31.92-.86.92h-2.8c-.54,0-.86-.34-.86-.92V10.9h-5.06c-.54,0-.86-.34-.86-.92v-2.58c0-.58.31-.92.86-.92h14.7c.54,0,.86.34.86.92Z"/>
  <path class="cls-2" d="M101.85,27.21l-1.26-3.62h-7.92l-1.23,3.62c-.17.52-.51.74-1,.74h-2.89c-.63,0-.92-.43-.69-1.07l7.07-19.65c.17-.52.49-.74.97-.74h3.52c.49,0,.8.21.97.74l7.09,19.65c.23.64-.06,1.07-.69,1.07h-2.97c-.49,0-.8-.21-.97-.74ZM99.25,19.7l-2.63-7.63-2.6,7.63h5.23Z"/>
  <path class="cls-2" d="M127.08,27.95h-3.46c-.46,0-.77-.18-1.03-.58l-4.4-7.21h-3.09v6.87c0,.58-.31.92-.86.92h-2.8c-.54,0-.86-.34-.86-.92V7.41c0-.58.31-.92.86-.92h6.44c5.01,0,9.35,1.38,9.35,6.5,0,3.4-1.72,5.37-4.29,6.35l4.72,7.51c.4.64.11,1.1-.57,1.1ZM115.09,15.99h2.52c3.15,0,4.86-.92,4.86-2.7,0-2.21-2.86-2.39-4.86-2.39h-2.52v5.09Z"/>
  <g>
    <path class="cls-2" d="M18.25,53.42h-3.46c-.46,0-.77-.18-1.03-.58l-4.41-7.21h-3.09v6.87c0,.58-.31.92-.86.92h-2.8c-.54,0-.86-.34-.86-.92v-19.62c0-.58.31-.92.86-.92h6.44c5.01,0,9.35,1.38,9.35,6.5,0,3.4-1.72,5.37-4.29,6.35l4.72,7.51c.4.64.11,1.1-.57,1.1ZM6.27,41.46h2.52c3.15,0,4.86-.92,4.86-2.7,0-2.21-2.86-2.39-4.86-2.39h-2.52v5.09Z"/>
    <path class="cls-2" d="M43.23,31.95h3.95c.54,0,.86.34.86.92v19.62c0,.58-.31.92-.86.92h-2.75c-.54,0-.86-.34-.86-.92v-12.79l-5.46,10.92c-.23.43-.54.64-1,.64h-2c-.46,0-.8-.21-1.03-.64l-5.72-11.1v12.97c0,.58-.31.92-.86.92h-2.66c-.54,0-.86-.34-.86-.92v-19.62c0-.58.31-.92.86-.92h3.95c.46,0,.8.21,1.03.64l6.29,12.2,6.12-12.2c.23-.43.54-.64,1-.64Z"/>
    <path class="cls-2" d="M52.78,51.73c-.43-.31-.49-.71-.26-1.23l1.12-2.42c.26-.58.66-.64,1.17-.25,1.29.98,3.38,1.81,5.49,1.81,1.8,0,3.83-.43,3.83-2.18,0-1.41-1.8-1.84-4.86-2.7-5.06-1.41-6.35-4.02-6.35-7.05,0-4.48,3.72-6.29,7.52-6.29,3.4,0,6.12,1.07,7.67,2.24.43.34.46.77.2,1.26l-1.17,2.24c-.29.58-.69.61-1.17.21-1.17-.95-3-1.72-5.12-1.72s-3.32.77-3.32,1.93c0,1.26.94,2.02,4.38,2.97,4.66,1.26,6.84,2.85,6.84,6.75,0,4.69-3.89,6.62-8.32,6.62-3.35,0-6.12-1.07-7.64-2.21Z"/>
  </g>
  <rect class="cls-2" x="73.9" y="33.11" width="54.35" height="20.93" rx="10.34" ry="10.34"/>
  <g>
    <path class="cls-1" d="M93.99,42.91v.1c-.04.05-.07.11-.12.16-.52.53-1.04,1.07-1.56,1.6-.03.03-.05.06-.04.11.13.76.25,1.52.37,2.28.03.19,0,.25-.16.34h-.12s-.06-.03-.09-.05c-.65-.36-1.29-.71-1.94-1.07-.05-.03-.08-.03-.13,0-.18.1-.35.2-.53.3-.5.28-1,.55-1.49.83h-.12c-.16-.08-.2-.15-.17-.33.12-.76.25-1.51.37-2.27.01-.06,0-.1-.05-.14-.53-.54-1.05-1.08-1.58-1.62-.07-.07-.11-.15-.07-.26.03-.11.12-.15.22-.16.73-.11,1.46-.22,2.19-.33.05,0,.08-.03.1-.07.08-.17.15-.33.23-.5.25-.53.5-1.06.75-1.59.04-.09.11-.14.21-.15.11,0,.19.05.24.15.32.7.65,1.39.98,2.09.02.04.03.06.08.07.72.11,1.44.22,2.16.33.13.02.23.06.27.19Z"/>
    <path class="cls-1" d="M115.6,42.91v.1c-.04.05-.07.11-.12.16-.52.53-1.04,1.07-1.56,1.6-.03.03-.05.06-.04.11.13.76.25,1.52.37,2.28.03.19,0,.25-.16.34h-.12s-.06-.03-.09-.05c-.65-.36-1.29-.71-1.94-1.07-.05-.03-.08-.03-.13,0-.18.1-.35.2-.53.3-.5.28-1,.55-1.49.83h-.12c-.16-.08-.2-.15-.17-.33.12-.76.25-1.51.37-2.27.01-.06,0-.1-.05-.14-.53-.54-1.05-1.08-1.58-1.62-.07-.07-.11-.15-.07-.26.03-.11.12-.15.22-.16.73-.11,1.46-.22,2.19-.33.05,0,.08-.03.1-.07.08-.17.15-.33.23-.5.25-.53.5-1.06.75-1.59.04-.09.11-.14.21-.15.11,0,.19.05.24.15.32.7.65,1.39.98,2.09.02.04.03.06.08.07.72.11,1.44.22,2.16.33.13.02.23.06.27.19Z"/>
    <path class="cls-1" d="M105.34,42.54v.12c-.05.06-.09.13-.14.19-.61.63-1.22,1.26-1.84,1.88-.04.04-.06.07-.05.13.15.89.29,1.78.44,2.68.04.22,0,.3-.19.4h-.14s-.07-.04-.1-.06c-.76-.42-1.52-.84-2.28-1.26-.06-.03-.1-.03-.15,0-.21.12-.42.23-.63.35-.59.32-1.17.65-1.76.97h-.14c-.19-.1-.23-.18-.2-.39.15-.89.29-1.78.44-2.67.01-.07,0-.11-.05-.16-.62-.63-1.24-1.27-1.86-1.91-.08-.09-.13-.18-.09-.3.04-.12.14-.17.26-.19.86-.13,1.71-.26,2.57-.39.06,0,.09-.03.11-.08.09-.2.18-.39.27-.59.29-.63.59-1.25.88-1.88.05-.11.13-.17.25-.17.13,0,.22.06.28.18.38.82.77,1.64,1.15,2.46.02.04.03.08.09.08.85.13,1.7.26,2.55.39.15.02.27.08.32.23Z"/>
  </g>
</svg>