<?xml version="1.0" encoding="UTF-8"?>
<svg id="Layer_1" xmlns="http://www.w3.org/2000/svg" xmlns:xlink="http://www.w3.org/1999/xlink" viewBox="0 0 130 60">
  <defs>
    <style>
      .cls-1 {
        fill: #fff;
      }

      .cls-2 {
        fill: url(#linear-gradient);
      }
    </style>
    <linearGradient id="linear-gradient" x1="73.87" y1="43.52" x2="128" y2="43.52" gradientUnits="userSpaceOnUse">
      <stop offset="0" stop-color="#2ed1cf"/>
      <stop offset="1" stop-color="#2e96f8"/>
    </linearGradient>
  </defs>
  <path d="M2.39,26.28c-.43-.31-.48-.7-.26-1.22l1.11-2.41c.26-.58.66-.64,1.17-.24,1.28.98,3.36,1.8,5.47,1.8,1.79,0,3.82-.43,3.82-2.17,0-1.4-1.79-1.83-4.84-2.69-5.04-1.4-6.33-4-6.33-7.02,0-4.46,3.7-6.26,7.49-6.26,3.39,0,6.1,1.07,7.64,2.23.43.34.46.76.2,1.25l-1.17,2.23c-.28.58-.68.61-1.17.21-1.17-.95-2.99-1.71-5.1-1.71s-3.31.76-3.31,1.92c0,1.25.94,2.02,4.36,2.96,4.64,1.25,6.81,2.84,6.81,6.72,0,4.67-3.87,6.6-8.29,6.6-3.33,0-6.1-1.07-7.61-2.2Z"/>
  <path d="M34.9,27.22l-1.25-3.6h-7.89l-1.23,3.6c-.17.52-.51.73-1,.73h-2.88c-.63,0-.91-.43-.68-1.07l7.04-19.58c.17-.52.48-.73.97-.73h3.5c.48,0,.8.21.97.73l7.07,19.58c.23.64-.06,1.07-.68,1.07h-2.96c-.48,0-.8-.21-.97-.73ZM32.3,19.74l-2.62-7.6-2.59,7.6h5.21Z"/>
  <path d="M55.32,6.58h3.02c.63,0,.91.43.68,1.07l-7.07,19.58c-.17.52-.48.73-.97.73h-3.53c-.48,0-.8-.21-.97-.73l-7.07-19.58c-.23-.64.06-1.07.68-1.07h3.05c.48,0,.83.21,1,.73l5.1,15.06,5.07-15.06c.17-.52.51-.73,1-.73Z"/>
  <path d="M62.82,27.04V7.49c0-.58.31-.92.85-.92h2.79c.54,0,.85.34.85.92v19.55c0,.58-.31.92-.85.92h-2.79c-.54,0-.85-.34-.85-.92Z"/>
  <path d="M87.4,7.49v2.57c0,.58-.31.92-.85.92h-5.1v16.06c0,.58-.31.92-.85.92h-2.79c-.54,0-.85-.34-.85-.92V10.98h-5.04c-.54,0-.85-.34-.85-.92v-2.57c0-.58.31-.92.85-.92h14.64c.54,0,.85.34.85.92Z"/>
  <path d="M101.71,27.22l-1.25-3.6h-7.89l-1.23,3.6c-.17.52-.51.73-1,.73h-2.88c-.63,0-.91-.43-.68-1.07l7.04-19.58c.17-.52.48-.73.97-.73h3.5c.48,0,.8.21.97.73l7.07,19.58c.23.64-.06,1.07-.68,1.07h-2.96c-.48,0-.8-.21-.97-.73ZM99.11,19.74l-2.62-7.6-2.59,7.6h5.21Z"/>
  <path d="M126.83,27.96h-3.45c-.46,0-.77-.18-1.03-.58l-4.39-7.18h-3.08v6.84c0,.58-.31.92-.85.92h-2.79c-.54,0-.85-.34-.85-.92V7.49c0-.58.31-.92.85-.92h6.41c4.99,0,9.32,1.37,9.32,6.47,0,3.39-1.71,5.34-4.27,6.32l4.7,7.48c.4.64.11,1.1-.57,1.1ZM114.9,16.05h2.51c3.13,0,4.84-.92,4.84-2.69,0-2.2-2.85-2.38-4.84-2.38h-2.51v5.07Z"/>
  <g>
    <path d="M18.44,53.32h-3.45c-.46,0-.77-.18-1.03-.58l-4.39-7.18h-3.08v6.84c0,.58-.31.92-.85.92h-2.79c-.54,0-.85-.34-.85-.92v-19.55c0-.58.31-.92.85-.92h6.41c4.99,0,9.32,1.37,9.32,6.47,0,3.39-1.71,5.34-4.27,6.32l4.7,7.48c.4.64.11,1.1-.57,1.1ZM6.5,41.41h2.51c3.13,0,4.84-.92,4.84-2.69,0-2.2-2.85-2.38-4.84-2.38h-2.51v5.07Z"/>
    <path d="M43.31,31.95h3.93c.54,0,.85.34.85.92v19.55c0,.58-.31.92-.85.92h-2.74c-.54,0-.85-.34-.85-.92v-12.74l-5.44,10.87c-.23.43-.54.64-1,.64h-1.99c-.46,0-.8-.21-1.03-.64l-5.7-11.06v12.92c0,.58-.31.92-.85.92h-2.65c-.54,0-.85-.34-.85-.92v-19.55c0-.58.31-.92.85-.92h3.93c.46,0,.8.21,1.03.64l6.27,12.15,6.1-12.15c.23-.43.54-.64,1-.64Z"/>
    <path d="M52.83,51.64c-.43-.31-.48-.7-.26-1.22l1.11-2.41c.26-.58.66-.64,1.17-.24,1.28.98,3.36,1.8,5.47,1.8,1.79,0,3.82-.43,3.82-2.17,0-1.4-1.79-1.83-4.84-2.69-5.04-1.4-6.33-4-6.33-7.02,0-4.46,3.7-6.26,7.49-6.26,3.39,0,6.1,1.07,7.64,2.23.43.34.46.76.2,1.25l-1.17,2.23c-.28.58-.68.61-1.17.21-1.17-.95-2.99-1.71-5.1-1.71s-3.31.76-3.31,1.92c0,1.25.94,2.02,4.36,2.96,4.64,1.25,6.81,2.84,6.81,6.72,0,4.67-3.87,6.6-8.29,6.6-3.33,0-6.1-1.07-7.61-2.2Z"/>
  </g>
  <g>
    <rect class="cls-2" x="73.87" y="33.1" width="54.13" height="20.84" rx="10.42" ry="10.42"/>
    <g>
      <path class="cls-1" d="M93.87,42.86v.1c-.04.05-.07.11-.12.16-.41.42-.82.84-1.23,1.26-.23.24-.34.57-.29.9.1.6.2,1.2.29,1.8.03.19,0,.25-.16.34h-.12s-.06-.03-.09-.05c-.64-.36-1.29-.71-1.93-1.07-.05-.03-.08-.03-.13,0-.18.1-.35.2-.53.29-.5.27-.99.55-1.49.82h-.12c-.16-.08-.19-.15-.17-.33.1-.6.2-1.2.29-1.8.06-.34-.05-.68-.29-.93-.42-.43-.83-.86-1.25-1.28-.07-.07-.11-.15-.07-.25.03-.1.12-.15.22-.16.73-.11,1.45-.22,2.18-.33.05,0,.07-.03.09-.07.08-.17.15-.33.23-.5.25-.53.5-1.06.75-1.59.04-.09.11-.14.21-.15.11,0,.19.05.24.15.32.69.65,1.39.97,2.08.02.03.03.06.08.07.72.11,1.44.22,2.16.33.13.02.22.06.27.19Z"/>
      <path class="cls-1" d="M115.4,42.86v.1c-.04.05-.07.11-.12.16-.41.42-.82.84-1.23,1.26-.23.24-.34.57-.29.9.1.6.2,1.2.29,1.8.03.19,0,.25-.16.34h-.12s-.06-.03-.09-.05c-.64-.36-1.29-.71-1.93-1.07-.05-.03-.08-.03-.13,0-.18.1-.35.2-.53.29-.5.27-.99.55-1.49.82h-.12c-.16-.08-.19-.15-.17-.33.1-.6.2-1.2.29-1.8.06-.34-.05-.68-.29-.93-.42-.43-.83-.86-1.25-1.28-.07-.07-.11-.15-.07-.25.03-.1.12-.15.22-.16.73-.11,1.45-.22,2.18-.33.05,0,.07-.03.09-.07.08-.17.15-.33.23-.5.25-.53.5-1.06.75-1.59.04-.09.11-.14.21-.15.11,0,.19.05.24.15.32.69.65,1.39.97,2.08.02.03.03.06.08.07.72.11,1.44.22,2.16.33.13.02.22.06.27.19Z"/>
      <path class="cls-1" d="M105.18,42.49v.12c-.05.06-.08.13-.14.19-.5.52-1,1.03-1.51,1.55-.24.24-.35.59-.29.93.12.73.24,1.47.36,2.2.04.22,0,.3-.19.4h-.14s-.07-.04-.1-.06c-.76-.42-1.52-.84-2.27-1.26-.06-.03-.1-.03-.15,0-.21.12-.42.23-.62.35-.58.32-1.17.65-1.75.97h-.14c-.19-.1-.23-.18-.19-.39.12-.73.24-1.46.36-2.19.06-.35-.05-.7-.3-.96-.51-.52-1.02-1.05-1.53-1.57-.08-.09-.13-.18-.09-.3.04-.12.14-.17.26-.19.85-.13,1.71-.26,2.56-.39.06,0,.09-.03.11-.08.09-.2.18-.39.27-.58.29-.62.59-1.24.88-1.87.05-.11.13-.17.25-.17.13,0,.22.06.28.18.38.82.76,1.63,1.15,2.45.02.04.03.08.09.08.85.13,1.69.26,2.54.38.15.02.26.08.32.23Z"/>
    </g>
  </g>
</svg>